HIERARCHY
ROOT hip
{
	OFFSET 0.000000 0.000000 0.000000
	CHANNELS 6 Xposition Yposition Zposition Zrotation Yrotation Xrotation 
	JOINT lhipjoint
	{
		OFFSET 0.000000 0.000000 0.000000
		CHANNELS 3 Zrotation Yrotation Xrotation
		JOINT lfemur
		{
			OFFSET 1.363060 -1.794630 0.839290
			CHANNELS 3 Zrotation Yrotation Xrotation
			JOINT ltibia
			{
				OFFSET 2.448110 -6.726130 0.000000
				CHANNELS 3 Zrotation Yrotation Xrotation
				JOINT lfoot
				{
					OFFSET 2.562200 -7.039590 0.000000
					CHANNELS 3 Zrotation Yrotation Xrotation
					JOINT ltoes
					{
						OFFSET 0.157640 -0.433110 2.322550
						CHANNELS 3 Zrotation Yrotation Xrotation
						End Site
						{
							OFFSET 0.000000 0.000000 0.000000
						}
					}
				}
			}
		}
	}
	JOINT rhipjoint
	{
		OFFSET 0.000000 0.000000 0.000000
		CHANNELS 3 Zrotation Yrotation Xrotation
		JOINT rfemur
		{
			OFFSET -1.305520 -1.794630 0.839290
			CHANNELS 3 Zrotation Yrotation Xrotation
			JOINT rtibia
			{
				OFFSET -2.542530 -6.985550 0.000000
				CHANNELS 3 Zrotation Yrotation Xrotation
				JOINT rfoot
				{
					OFFSET -2.568260 -7.056230 0.000000
					CHANNELS 3 Zrotation Yrotation Xrotation
					JOINT rtoes
					{
						OFFSET -0.164730 -0.452590 2.363150
						CHANNELS 3 Zrotation Yrotation Xrotation
						End Site
						{
							OFFSET 0.000000 0.000000 0.000000
						}
					}
				}
			}
		}
	}
	JOINT lowerback
	{
		OFFSET 0.000000 0.000000 0.000000
		CHANNELS 3 Zrotation Yrotation Xrotation
		JOINT upperback
		{
			OFFSET 0.028270 2.035590 -0.193380
			CHANNELS 3 Zrotation Yrotation Xrotation
			JOINT thorax
			{
				OFFSET 0.056720 2.048850 -0.042750
				CHANNELS 3 Zrotation Yrotation Xrotation
				JOINT lowerneck
				{
					OFFSET 0.000000 0.000000 0.000000
					CHANNELS 3 Zrotation Yrotation Xrotation
					JOINT upperneck
					{
						OFFSET -0.054170 1.746240 0.172020
						CHANNELS 3 Zrotation Yrotation Xrotation
						JOINT head
						{
							OFFSET 0.104070 1.761360 -0.123970
							CHANNELS 3 Zrotation Yrotation Xrotation
							End Site
							{
								OFFSET 0.000000 0.000000 0.000000
							}
						}
					}
				}
				JOINT lclavicle
				{
					OFFSET 0.000000 0.000000 0.000000
					CHANNELS 3 Zrotation Yrotation Xrotation
					JOINT lhumerus
					{
						OFFSET 3.362410 1.200890 -0.311210
						CHANNELS 3 Zrotation Yrotation Xrotation
						JOINT lradius
						{
							OFFSET 4.983000 -0.000000 -0.000000
							CHANNELS 3 Zrotation Yrotation Xrotation
							JOINT lwrist
							{
								OFFSET 3.483560 -0.000000 -0.000000
								CHANNELS 3 Zrotation Yrotation Xrotation
								JOINT lhand
								{
									OFFSET 0.000000 0.000000 0.000000
									CHANNELS 3 Zrotation Yrotation Xrotation
									JOINT lfingers
									{
										OFFSET 0.715260 -0.000000 -0.000000
										CHANNELS 3 Zrotation Yrotation Xrotation
										End Site
										{
											OFFSET 0.000000 0.000000 0.000000
										}
									}
								}
								JOINT lthumb
								{
									OFFSET 0.000000 0.000000 0.000000
									CHANNELS 3 Zrotation Yrotation Xrotation
									End Site
									{
										OFFSET 0.000000 0.000000 0.000000
									}
								}
							}
						}
					}
				}
				JOINT rclavicle
				{
					OFFSET 0.000000 0.000000 0.000000
					CHANNELS 3 Zrotation Yrotation Xrotation
					JOINT rhumerus
					{
						OFFSET -3.136600 1.374050 -0.404650
						CHANNELS 3 Zrotation Yrotation Xrotation
						JOINT rradius
						{
							OFFSET -5.241900 -0.000000 -0.000000
							CHANNELS 3 Zrotation Yrotation Xrotation
							JOINT rwrist
							{
								OFFSET -3.444170 -0.000000 -0.000000
								CHANNELS 3 Zrotation Yrotation Xrotation
								JOINT rhand
								{
									OFFSET 0.000000 0.000000 0.000000
									CHANNELS 3 Zrotation Yrotation Xrotation
									JOINT rfingers
									{
										OFFSET -0.622530 -0.000000 -0.000000
										CHANNELS 3 Zrotation Yrotation Xrotation
										End Site
										{
											OFFSET 0.000000 0.000000 0.000000
										}
									}
								}
								JOINT rthumb
								{
									OFFSET 0.000000 0.000000 0.000000
									CHANNELS 3 Zrotation Yrotation Xrotation
									End Site
									{
										OFFSET 0.000000 0.000000 0.000000
									}
								}
							}
						}
					}
				}
			}
		}
	}
}
MOTION
Frames: 8
Frame Time: 0.008333
-0.817696 17.933039 -2.229548 -173.307339 -21.510067 167.887052 -1.694109 3.165778 2.608115 -10.723775 7.393288 13.432038 0.269241 2.737857 9.506989 -0.289857 2.520259 -1.839732 0.815200 -5.761500 -16.094100 0.570788 -4.227976 1.783122 20.480073 1.646008 -2.808194 -2.692595 -8.437892 28.428262 1.970766 -9.625876 -2.028711 -0.522600 4.633000 -12.864700 0.113663 -2.250821 13.357114 1.406701 -3.281241 -4.198174 8.738805 -1.269687 -1.440987 -13.418743 -10.214175 -8.601664 -1.553206 -11.304645 6.475244 4.366700 -5.669700 5.548300 -1.221349 0.938758 0.488072 45.143224 -26.552255 -36.617649 48.571620 -52.418700 -22.020203 0.370018 -0.925420 -100.686726 4.633089 -7.801727 -0.744400 -7.125000 0.000000 0.000000 -15.353800 22.413200 8.646300 4.456351 1.355461 -0.985425 -46.122737 19.933121 -45.771144 -44.620443 57.842774 -18.586924 0.395794 -1.112174 -31.408266 -26.207361 13.114842 -6.925700 7.125000 0.000000 0.000000 1.031800 -14.002200 0.751600 
-0.812161 17.933552 -2.235288 -173.311747 -21.437876 167.965417 -1.694194 3.162604 2.609431 -10.715522 7.358412 13.401008 0.266352 2.726112 9.471020 -0.300685 2.579792 -1.866428 0.804800 -5.725500 -15.989900 0.571782 -4.228388 1.784575 20.519316 1.704992 -2.837760 -2.682799 -8.423256 28.380361 1.966797 -9.607499 -2.033110 -0.526500 4.649800 -12.912300 0.136485 -2.293208 13.336352 1.403369 -3.337632 -4.205318 8.743293 -1.289838 -1.467147 -13.392142 -10.166200 -8.565216 -1.561215 -11.246339 6.464512 4.381800 -5.640600 5.530900 -1.201117 0.891024 0.520272 43.909359 -25.682541 -36.145094 47.763797 -51.924531 -21.623097 0.337962 -0.983814 -101.386776 5.979473 -8.040978 -0.966900 -7.125000 0.000000 0.000000 -14.330900 22.105100 8.136100 4.409838 1.410721 -1.023726 -45.192064 18.931172 -45.955343 -44.619246 57.686099 -18.649640 0.386761 -1.096161 -32.595648 -26.639488 12.707212 -6.848300 7.125000 0.000000 0.000000 0.720000 -14.417200 0.518100 
-0.807446 17.935397 -2.241848 -173.305645 -21.355206 168.040529 -1.695401 3.160629 2.613465 -10.698954 7.338465 13.381729 0.263041 2.710596 9.425645 -0.311777 2.641739 -1.908993 0.785200 -5.657000 -15.792500 0.572180 -4.230290 1.787759 20.561039 1.727569 -2.888227 -2.673399 -8.409021 28.334654 1.960086 -9.575720 -1.998036 -0.529700 4.664000 -12.952700 0.183751 -2.328516 13.351781 1.401424 -3.380173 -4.218825 8.766034 -1.303823 -1.513246 -13.447939 -10.142627 -8.617853 -1.537574 -11.203845 6.485323 4.420700 -5.624300 5.576800 -1.190350 0.837798 0.542314 42.681358 -24.841343 -35.809902 46.897117 -51.388875 -21.175028 0.305557 -1.030885 -102.158226 7.280217 -8.575144 -1.239200 -7.125000 0.000000 0.000000 -13.328100 21.499700 7.723100 4.366439 1.464417 -1.063716 -44.330602 17.974868 -46.288190 -44.551538 57.496167 -18.669212 0.373670 -1.078046 -33.608898 -27.375138 12.200460 -6.804200 7.125000 0.000000 0.000000 0.190200 -14.905700 0.134900 
-0.801399 17.936114 -2.247280 -173.331160 -21.285560 168.121247 -1.698261 3.158270 2.617459 -10.713153 7.307436 13.351365 0.260466 2.698420 9.390705 -0.326508 2.720872 -1.939137 0.792800 -5.683500 -15.868900 0.571671 -4.231276 1.791909 20.581798 1.795881 -2.918944 -2.664537 -8.396245 28.290933 1.958312 -9.566115 -1.980134 -0.529200 4.661600 -12.946000 0.165182 -2.356575 13.406819 1.401881 -3.420566 -4.234624 8.829144 -1.319805 -1.569729 -13.444428 -10.128054 -8.718097 -1.560576 -11.168920 6.510696 4.411400 -5.613300 5.624000 -1.176522 0.782863 0.562409 41.474604 -24.034317 -35.690447 45.999624 -50.829741 -20.705386 0.276193 -1.077519 -102.919998 8.506249 -9.171911 -1.538100 -7.125000 0.000000 0.000000 -12.384500 20.824500 7.343300 4.337038 1.511818 -1.103735 -43.504734 17.096072 -46.809855 -44.477588 57.304429 -18.686974 0.357241 -1.061766 -34.407136 -28.398343 11.512644 -6.736900 7.125000 0.000000 0.000000 -0.556000 -15.560500 -0.386500 
-0.795967 17.937651 -2.252610 -173.365629 -21.221096 168.203119 -1.702216 3.156113 2.621659 -10.740698 7.274999 13.323905 0.258573 2.688436 9.362537 -0.341937 2.804138 -1.980590 0.798900 -5.704900 -15.930700 0.570742 -4.232334 1.796048 20.589913 1.849108 -2.953670 -2.654714 -8.381847 28.240308 1.959554 -9.567939 -1.937503 -0.534200 4.683200 -13.007100 0.118704 -2.358665 13.462784 1.403416 -3.429192 -4.250259 8.902763 -1.321656 -1.626948 -13.335929 -10.098898 -8.818559 -1.628731 -11.124147 6.533001 4.352000 -5.597000 5.646600 -1.158418 0.730858 0.583786 40.347347 -23.310188 -35.808065 45.095404 -50.264852 -20.226050 0.249333 -1.122848 -103.604488 9.637881 -9.739693 -1.844100 -7.125000 0.000000 0.000000 -11.521800 20.172200 6.982700 4.323853 1.549993 -1.140318 -42.733255 16.277162 -47.481349 -44.329053 57.075331 -18.655656 0.337495 -1.047053 -34.966340 -29.598824 10.603235 -6.572800 7.125000 0.000000 0.000000 -1.451500 -16.450300 -0.981400 
-0.790227 17.937549 -2.257427 -173.375532 -21.144198 168.258659 -1.706167 3.154881 2.627470 -10.737094 7.248842 13.304881 0.257843 2.685794 9.353895 -0.350875 2.854915 -2.028805 0.796000 -5.694700 -15.901000 0.568387 -4.234715 1.800918 20.620605 1.887192 -2.971753 -2.645233 -8.365906 28.190586 1.956762 -9.553199 -1.914733 -0.531600 4.672200 -12.976100 0.109364 -2.362318 13.555502 1.406703 -3.434775 -4.267398 8.964204 -1.323504 -1.690679 -13.189659 -10.047892 -8.975127 -1.737404 -11.046636 6.586843 4.260100 -5.570900 5.689200 -1.142477 0.679294 0.601041 39.262650 -22.648427 -36.115832 44.225115 -49.714202 -19.770996 0.229267 -1.170204 -104.187596 10.600611 -10.147331 -2.111500 -7.125000 0.000000 0.000000 -10.793000 19.683100 6.645000 4.322512 1.576041 -1.171230 -42.036357 15.601633 -48.403090 -44.077035 56.800392 -18.552952 0.313695 -1.034374 -35.285630 -30.900667 9.566757 -6.319400 7.125000 0.000000 0.000000 -2.439300 -17.488000 -1.595000 
-0.784078 17.939086 -2.261424 -173.381686 -21.090956 168.330801 -1.709373 3.151993 2.633586 -10.735419 7.184676 13.244578 0.258674 2.694610 9.375101 -0.361767 2.913996 -2.048120 0.794700 -5.690100 -15.887900 0.567793 -4.236509 1.806687 20.660498 1.958696 -2.994664 -2.634104 -8.347055 28.129131 1.963255 -9.576973 -1.886710 -0.528200 4.657400 -12.934100 0.115494 -2.365735 13.644474 1.406036 -3.438023 -4.287923 8.985175 -1.322792 -1.761869 -12.982657 -9.998521 -9.152591 -1.876909 -10.975069 6.639426 4.136500 -5.548100 5.727200 -1.129440 0.632429 0.616714 38.301309 -22.088844 -36.646466 43.366500 -49.172878 -19.317147 0.213149 -1.216859 -104.593558 11.445949 -10.306704 -2.317200 -7.125000 0.000000 0.000000 -10.161300 19.448100 6.297400 4.328848 1.593421 -1.194181 -41.392264 15.015838 -49.528594 -43.693077 56.460432 -18.356003 0.287723 -1.023623 -35.405301 -32.114057 8.503885 -5.974200 7.125000 0.000000 0.000000 -3.379900 -18.589000 -2.129900 
-0.778236 17.938574 -2.265114 -173.387947 -21.026536 168.372548 -1.710064 3.148824 2.636664 -10.737810 7.138880 13.206895 0.261722 2.711931 9.422323 -0.367536 2.949693 -2.110251 0.797200 -5.698800 -15.913100 0.569127 -4.239320 1.811238 20.694257 1.996896 -2.994485 -2.623333 -8.328210 28.066951 1.970159 -9.602572 -1.835206 -0.541900 4.716600 -13.101900 0.153664 -2.356305 13.758335 1.396069 -3.423661 -4.300030 8.935527 -1.314477 -1.809700 -12.764943 -9.953603 -9.346141 -1.992348 -10.914539 6.681855 4.026000 -5.527000 5.767800 -1.122893 0.595038 0.633551 37.473581 -21.642754 -37.355465 42.565217 -48.669531 -18.898466 0.199446 -1.262696 -104.741851 12.259488 -10.156146 -2.449200 -7.125000 0.000000 0.000000 -9.562800 19.530600 5.897700 4.326737 1.604329 -1.204671 -40.670025 14.488871 -50.865333 -43.309413 56.119760 -18.154055 0.262765 -1.014164 -35.301829 -33.160191 7.581122 -5.627400 7.125000 0.000000 0.000000 -4.202000 -19.565500 -2.559000 
